<svg xmlns="http://www.w3.org/2000/svg" xmlns:xlink="http://www.w3.org/1999/xlink" version="1.1" x="0px" y="0px" viewBox="0 0 32 40" enable-background="new 0 0 32 32" xml:space="preserve"><g><g><path d="M11.707,31c-0.098,0-0.197-0.015-0.294-0.044c-0.943-0.29-1.868-0.675-2.747-1.145c-0.342-0.182-0.548-0.546-0.528-0.933    l0.188-3.693c-0.548-0.458-1.054-0.964-1.512-1.512l-3.692,0.188c-0.389,0.024-0.751-0.188-0.934-0.529    c-0.471-0.884-0.855-1.809-1.144-2.748C0.93,20.214,1.041,19.811,1.33,19.55l2.744-2.479C4.037,16.692,4.019,16.339,4.019,16    s0.019-0.692,0.056-1.071L1.33,12.45c-0.289-0.261-0.4-0.664-0.286-1.035c0.288-0.939,0.673-1.864,1.144-2.748    C2.37,8.325,2.733,8.113,3.121,8.138l3.692,0.188c0.458-0.548,0.964-1.054,1.512-1.512L8.138,3.121    C8.118,2.734,8.324,2.37,8.666,2.188c0.879-0.47,1.804-0.854,2.747-1.145c0.372-0.114,0.775-0.003,1.036,0.286l2.479,2.744    c0.766-0.074,1.38-0.076,2.144,0L19.55,1.33c0.26-0.289,0.663-0.4,1.035-0.286c0.944,0.29,1.869,0.675,2.749,1.145    c0.342,0.182,0.548,0.546,0.528,0.933l-0.188,3.692c0.548,0.458,1.055,0.965,1.513,1.513l3.692-0.188    c0.38-0.026,0.751,0.187,0.933,0.528c0.47,0.88,0.854,1.805,1.145,2.749c0.114,0.371,0.002,0.775-0.286,1.035l-2.744,2.477    c0.037,0.384,0.056,0.732,0.056,1.073s-0.019,0.689-0.056,1.073l2.744,2.477c0.288,0.26,0.4,0.664,0.286,1.035    c-0.29,0.944-0.675,1.869-1.145,2.749c-0.182,0.342-0.552,0.555-0.933,0.528l-3.692-0.188c-0.458,0.548-0.965,1.055-1.513,1.513    l0.188,3.692c0.02,0.387-0.187,0.751-0.528,0.933c-0.88,0.47-1.805,0.854-2.749,1.145c-0.369,0.112-0.775,0.003-1.035-0.286    l-2.479-2.744c-0.764,0.076-1.378,0.074-2.144,0l-2.479,2.744C12.257,30.884,11.985,31,11.707,31z M17.468,25.872    c0.281,0,0.552,0.118,0.742,0.33l2.387,2.643c0.418-0.15,0.831-0.322,1.234-0.515l-0.181-3.553    c-0.017-0.329,0.13-0.645,0.392-0.845c0.711-0.544,1.347-1.18,1.891-1.891c0.199-0.262,0.513-0.415,0.845-0.392l3.553,0.181    c0.192-0.403,0.364-0.816,0.515-1.234l-2.643-2.385c-0.245-0.221-0.365-0.548-0.321-0.875c0.068-0.513,0.101-0.938,0.101-1.337    s-0.032-0.824-0.101-1.337c-0.044-0.327,0.076-0.654,0.321-0.875l2.643-2.385c-0.15-0.418-0.322-0.831-0.515-1.234l-3.553,0.181    c-0.331,0.02-0.646-0.13-0.845-0.392c-0.544-0.711-1.18-1.347-1.891-1.891c-0.262-0.2-0.408-0.516-0.392-0.845l0.181-3.553    c-0.403-0.192-0.816-0.364-1.234-0.515L18.21,5.798c-0.221,0.245-0.551,0.363-0.875,0.321c-1.023-0.137-1.646-0.137-2.671,0    c-0.335,0.04-0.655-0.076-0.875-0.321l-2.387-2.643c-0.418,0.15-0.83,0.322-1.234,0.515l0.181,3.555    c0.017,0.329-0.13,0.646-0.392,0.846c-0.71,0.542-1.346,1.177-1.89,1.888c-0.2,0.262-0.518,0.411-0.845,0.392L3.67,10.169    c-0.192,0.404-0.364,0.817-0.515,1.234l2.643,2.387c0.245,0.222,0.365,0.55,0.321,0.877C6.051,15.17,6.019,15.594,6.019,16    s0.032,0.83,0.101,1.333c0.044,0.327-0.076,0.655-0.321,0.877l-2.643,2.387c0.15,0.417,0.322,0.83,0.515,1.234l3.553-0.181    c0.327-0.023,0.645,0.13,0.845,0.392c0.544,0.711,1.18,1.346,1.89,1.888c0.262,0.2,0.408,0.517,0.392,0.846l-0.181,3.555    c0.404,0.192,0.816,0.364,1.234,0.515l2.387-2.643c0.22-0.245,0.542-0.363,0.875-0.321c1.025,0.137,1.647,0.137,2.671,0    C17.379,25.875,17.424,25.872,17.468,25.872z"/></g><g><path d="M16,21c-2.757,0-5-2.243-5-5s2.243-5,5-5s5,2.243,5,5S18.757,21,16,21z M16,13c-1.654,0-3,1.346-3,3s1.346,3,3,3    s3-1.346,3-3S17.654,13,16,13z"/></g></g><text x="0" y="47" fill="#000000" font-size="5px" font-weight="bold" font-family="'Helvetica Neue', Helvetica, Arial-Unicode, Arial, Sans-serif">Created by Celcius Creative</text><text x="0" y="52" fill="#000000" font-size="5px" font-weight="bold" font-family="'Helvetica Neue', Helvetica, Arial-Unicode, Arial, Sans-serif">from the Noun Project</text></svg>