<svg xmlns="http://www.w3.org/2000/svg" viewBox="0 0 64 80" x="0px" y="0px"><title>language, translator, translate, translation</title><g data-name="Language"><path d="M35.5,29.5V3.5A1.5,1.5,0,0,0,34,2H8A1.5,1.5,0,0,0,6.5,3.5v26A1.5,1.5,0,0,0,8,31H34A1.5,1.5,0,0,0,35.5,29.5Zm-8.32-7.11h.02a1.5,1.5,0,0,1,.01,3h-.03a11.208,11.208,0,0,1-6-1.6,12,12,0,0,1-6.35,1.6h-.04a1.5,1.5,0,0,1,.01-3h.03a9.848,9.848,0,0,0,3.86-.7,13.448,13.448,0,0,1-2.34-4.01,1.5,1.5,0,0,1,2.8-1.08,10.112,10.112,0,0,0,2.02,3.35,9.887,9.887,0,0,0,2.2-5.21H14.8a1.5,1.5,0,0,1,0-3h4.7V9.11a1.5,1.5,0,0,1,3,0v2.63h4.7a1.5,1.5,0,0,1,0,3h-.8a13.175,13.175,0,0,1-2.77,6.96A8.749,8.749,0,0,0,27.18,22.39ZM56,33H30a1.5,1.5,0,0,0-1.5,1.5v26A1.5,1.5,0,0,0,30,62H56a1.5,1.5,0,0,0,1.5-1.5v-26A1.5,1.5,0,0,0,56,33ZM54.5,59h-23V36h23ZM36.443,56.393a1.5,1.5,0,0,0,1.95-.836L40.015,51.5h5.97l1.622,4.057a1.5,1.5,0,1,0,2.786-1.114l-2.01-5.024,0,0-3.988-9.971-.009-.016a1.414,1.414,0,0,0-.083-.159c-.019-.034-.035-.071-.056-.1s-.062-.077-.093-.115-.058-.077-.092-.111-.062-.051-.092-.076a1.242,1.242,0,0,0-.134-.108c-.029-.02-.062-.034-.092-.051a1.618,1.618,0,0,0-.17-.089l-.015-.008c-.033-.013-.067-.018-.1-.028a1.407,1.407,0,0,0-.165-.048,1.474,1.474,0,0,0-.147-.018c-.048,0-.1-.011-.143-.011a1.473,1.473,0,0,0-.162.013c-.043.005-.085.007-.128.015a1.451,1.451,0,0,0-.182.052c-.029.01-.059.014-.087.025l-.014.008a1.65,1.65,0,0,0-.182.094c-.026.016-.055.028-.08.045a1.318,1.318,0,0,0-.143.116c-.027.023-.058.043-.083.069s-.063.075-.1.113-.064.072-.091.112-.037.069-.056.1a1.427,1.427,0,0,0-.083.16l-.009.016-3.988,9.971,0,0-2.01,5.024A1.5,1.5,0,0,0,36.443,56.393ZM41.215,48.5,43,44.039,44.785,48.5ZM40.069,10.063a1.494,1.494,0,0,1,1.862-1C42.383,9.2,53,12.556,53,27.5c0,.02-.005.038-.006.057a1.463,1.463,0,0,1-.016.161c-.007.046-.013.091-.024.135s-.028.095-.044.142-.033.093-.054.137a1.185,1.185,0,0,1-.066.121,1.492,1.492,0,0,1-.087.136c-.012.015-.019.033-.032.048s-.032.03-.047.047a1.58,1.58,0,0,1-.148.147c-.03.026-.06.052-.091.075a1.529,1.529,0,0,1-.177.109c-.032.017-.062.036-.094.051a1.554,1.554,0,0,1-.227.077c-.024.007-.046.017-.07.022A1.509,1.509,0,0,1,51.5,29h0a1.473,1.473,0,0,1-.438-.073c-.026-.008-.052-.015-.077-.024a1.518,1.518,0,0,1-.389-.214c-.009-.008-.021-.01-.031-.018l-5-4a1.5,1.5,0,1,1,1.874-2.342l2.352,1.881c-1.319-9.849-8.4-12.172-8.727-12.275A1.5,1.5,0,0,1,40.069,10.063ZM23.931,53.938a1.5,1.5,0,0,1-1.862,1C21.617,54.8,11,51.444,11,36.5c0-.02.005-.038.006-.057a1.463,1.463,0,0,1,.016-.161c.007-.046.013-.091.024-.135s.028-.095.044-.142.033-.093.054-.137a1.185,1.185,0,0,1,.066-.121,1.492,1.492,0,0,1,.087-.136c.012-.015.019-.033.032-.048s.036-.035.053-.055c.036-.04.074-.079.114-.116s.068-.059.1-.085a1.412,1.412,0,0,1,.13-.088c.038-.023.077-.044.117-.064s.1-.043.145-.061.084-.028.128-.039a1.441,1.441,0,0,1,.151-.032c.048-.007.1-.012.145-.015.029,0,.055-.008.084-.008s.041.005.062.006c.05,0,.1.008.151.015s.1.015.143.026.091.027.136.042a1.334,1.334,0,0,1,.141.056c.041.019.08.041.12.064a1.512,1.512,0,0,1,.136.089.49.49,0,0,1,.048.031l5,4a1.5,1.5,0,1,1-1.874,2.342L14.211,39.79c1.319,9.849,8.4,12.172,8.727,12.275A1.5,1.5,0,0,1,23.931,53.938Z"/></g><text x="0" y="79" fill="#000000" font-size="5px" font-weight="bold" font-family="'Helvetica Neue', Helvetica, Arial-Unicode, Arial, Sans-serif">Created by The Icon Z</text><text x="0" y="84" fill="#000000" font-size="5px" font-weight="bold" font-family="'Helvetica Neue', Helvetica, Arial-Unicode, Arial, Sans-serif">from the Noun Project</text></svg>